<?xml version="1.0" encoding="UTF-8"?>
<svg id="_レイヤー_1" data-name="レイヤー 1" xmlns="http://www.w3.org/2000/svg" viewBox="0 0 485.29 633.65">
  <defs>
    <style>
      .cls-1, .cls-2, .cls-3 {
        stroke-width: 0px;
      }

      .cls-1, .cls-4 {
        fill: #094;
      }

      .cls-5, .cls-6, .cls-7, .cls-4, .cls-8, .cls-9 {
        stroke-miterlimit: 10;
        stroke-width: 10px;
      }

      .cls-5, .cls-7, .cls-8 {
        fill: none;
      }

      .cls-5, .cls-9 {
        stroke: #e83828;
      }

      .cls-6 {
        fill: #fff;
        stroke: #ea5514;
      }

      .cls-2 {
        fill: #ea5514;
      }

      .cls-7 {
        stroke: #fff;
      }

      .cls-3, .cls-9 {
        fill: #e83828;
      }

      .cls-4, .cls-8 {
        stroke: #094;
      }
    </style>
  </defs>
  <ellipse class="cls-2" cx="408.68" cy="78.8" rx="76.61" ry="78.8"/>
  <ellipse class="cls-1" cx="387.07" cy="326.21" rx="76.61" ry="78.8"/>
  <ellipse class="cls-3" cx="393.93" cy="554.85" rx="76.61" ry="78.8"/>
  <path class="cls-7" d="m413.44,100.01l-32.31,33.19c-1.35,1-3.27.05-3.27-1.61V37.95c0-1.11.91-2.01,2.04-2.01h61.57c1.13,0,2.04.9,2.04,2.01v93.78c0,1.63-1.87,2.58-3.22,1.64l-32.58-33.07"/>
  <path class="cls-6" d="m79.34,95.39l-38.41,38.35c-1.6,1.15-3.89.06-3.89-1.86V23.67c0-1.28,1.09-2.32,2.43-2.32h73.19c1.34,0,2.43,1.04,2.43,2.32v108.38c0,1.89-2.22,2.99-3.83,1.9l-38.72-38.21"/>
  <path class="cls-2" d="m241.47,104.07l-41.79,38.99q0-1.69,0,0l-.51-110.7c0-1.28,1.09-2.32,2.43-2.32h73.19c1.34,0,2.43,1.04,2.43,2.32v110.7q0-1.29,0,0l-42.55-38.64"/>
  <path class="cls-4" d="m219.12,316.52c.65,1.42,2.07,2.34,3.63,2.37l69.79,1.04c1.93,0,3.5,1.8,3.5,4.02v58.19c0,2.24-1.82,4.06-4.06,4.06h-119.76c-2.24,0-4.06-1.82-4.06-4.06v-80.3c0-2.23,1.8-4.05,4.03-4.06l35.58-.25c1.6-.01,3.05.92,3.72,2.37l7.63,16.62Z"/>
  <path class="cls-8" d="m55.97,307.84c.65,1.42,2.07,2.34,3.63,2.37l69.79,1.04c1.93,0,3.5,1.8,3.5,4.02v58.19c0,2.24-1.82,4.06-4.06,4.06H9.06c-2.24,0-4.06-1.82-4.06-4.06v-80.3c0-2.23,1.8-4.05,4.03-4.06l35.58-.25c1.6-.01,3.05.92,3.72,2.37l7.63,16.62Z"/>
  <path class="cls-7" d="m380.17,304.95c.54,1.19,1.7,1.97,2.99,1.99l57.47.87c1.59,0,2.88,1.51,2.88,3.38v48.8c0,1.88-1.5,3.41-3.35,3.41h-98.62c-1.85,0-3.35-1.53-3.35-3.41v-67.35c0-1.87,1.48-3.39,3.32-3.41l29.3-.21c1.32,0,2.52.77,3.06,1.99l6.28,13.94Z"/>
  <path class="cls-3" d="m274.58,548.37l-34.65,12.11c-.76.27-1.36.85-1.65,1.6l-14.8,38.34c-.91,2.36-4.25,2.33-5.13-.04l-30.9-83.78c-.8-2.17,1.28-4.29,3.46-3.54l83.64,28.75c3.11,1.07,3.12,5.46.02,6.55Z"/>
  <rect class="cls-9" x="228.43" y="574.28" width="44.95" height="2.09" rx=".63" ry=".63" transform="translate(559.04 28.51) rotate(52.96)"/>
  <path class="cls-5" d="m118.55,565.34l-34.65,12.11c-.76.27-1.36.85-1.65,1.6l-14.8,38.34c-.91,2.36-4.25,2.33-5.13-.04l-30.9-83.78c-.8-2.17,1.28-4.29,3.46-3.54l83.64,28.75c3.11,1.07,3.12,5.46.02,6.55Z"/>
  <rect class="cls-5" x="81.04" y="596.03" width="33.92" height="1.62" rx=".63" ry=".63" transform="translate(515.41 159.13) rotate(52.96)"/>
  <path class="cls-7" d="m433.34,548.37l-34.65,12.11c-.76.27-1.36.85-1.65,1.6l-14.8,38.34c-.91,2.36-4.25,2.33-5.13-.04l-30.9-83.78c-.8-2.17,1.28-4.29,3.46-3.54l83.64,28.75c3.11,1.07,3.12,5.46.02,6.55Z"/>
  <rect class="cls-7" x="395.84" y="579.06" width="33.92" height="1.62" rx=".63" ry=".63" transform="translate(627.06 -98.92) rotate(52.96)"/>
</svg>